<svg width="554" height="185" viewBox="0 0 554 185" fill="none" xmlns="http://www.w3.org/2000/svg">
<path d="M17.1252 63.4489V62.7638L20.9784 58.5682V5.73689L6.85009 6.4219L0.68501 11.3026H1.89533e-06L1.19877 1.71247H47.4368L48.6356 11.3026H48.0362L41.7855 6.4219L27.6572 5.73689V58.5682L31.5104 62.7638V63.4489H17.1252ZM59.4432 58.9107L62.4401 62.7638V63.4489H50.3669V62.7638L53.3638 58.9107V25.0028L50.3669 20.8071V20.1221L59.4432 18.5808V58.9107ZM56.2751 11.1313C53.7919 11.1313 51.8225 9.16193 51.8225 6.59315C51.8225 4.11 53.7919 2.1406 56.2751 2.1406C58.8438 2.1406 60.8989 4.11 60.8989 6.59315C60.8989 9.16193 58.8438 11.1313 56.2751 11.1313ZM67.5523 63.4489V62.7638L70.5492 58.9107V25.0028L67.5523 20.8071V20.1221L76.6286 18.5808V28.3422C78.8549 22.2627 83.1362 18.1527 88.8732 18.1527C89.9863 18.1527 91.0994 18.2383 91.9557 18.4952L91.3563 24.8315C82.1087 22.1771 77.913 30.2259 76.6286 36.1341V58.9107L80.5674 62.7638V63.4489H67.5523ZM97.6679 40.6723C97.6679 52.3175 104.689 59.2532 113.423 59.2532C120.359 59.2532 125.068 55.7425 127.637 48.3787L131.233 49.4918C128.921 58.4825 121.986 64.3051 112.224 64.3051C99.6373 64.3051 91.0747 54.3725 91.0747 41.1861C91.0747 28.0853 99.1235 18.1527 111.796 18.1527C126.181 18.1527 131.405 29.3697 130.72 40.0729H97.6679C97.6679 40.2442 97.6679 40.5011 97.6679 40.6723ZM98.0104 36.4766H124.126C123.784 28.4278 119.331 21.749 111.796 21.749C104.175 21.749 99.2091 28.1709 98.0104 36.4766ZM154.718 64.3051C142.816 64.3051 134.767 54.6294 134.767 41.1861C134.767 27.7428 143.844 18.1527 155.917 18.1527C161.311 18.1527 166.449 20.3789 169.617 25.0028V6.85003L166.62 2.65435V1.96934L175.697 0.428072V58.9107L178.694 62.7638V63.4489H169.617V54.3725C166.963 60.6232 160.883 64.3051 154.718 64.3051ZM155.746 59.6813C162.853 59.6813 168.675 54.2869 169.617 45.8955V34.0791C167.99 26.544 163.024 21.9202 156.345 21.9202C147.44 21.9202 141.446 30.2259 141.446 41.1861C141.446 51.7181 147.012 59.6813 155.746 59.6813ZM220.397 64.3051C207.981 64.3051 198.99 54.5437 198.99 41.1861C198.99 27.914 207.981 18.1527 220.397 18.1527C232.898 18.1527 241.889 27.914 241.889 41.1861C241.889 54.5437 232.898 64.3051 220.397 64.3051ZM220.397 60.4519C228.959 60.4519 235.296 52.4031 235.296 41.1861C235.296 29.8834 228.959 21.9202 220.397 21.9202C211.92 21.9202 205.583 29.9691 205.583 41.1861C205.583 52.4887 211.92 60.4519 220.397 60.4519ZM247.858 63.4489V62.7638L250.855 58.9107V22.8621H242.549V19.7796L250.855 19.0946V12.8439C250.855 4.19562 256.249 -5.74455e-05 263.099 -5.74455e-05C266.096 -5.74455e-05 268.836 0.770577 270.891 2.31185L269.864 8.47692L269.265 8.3913C268.066 5.56564 265.754 3.68187 263.271 3.68187C259.931 3.68187 257.02 6.25065 257.02 12.0732V18.7521L268.494 18.4952L268.751 22.8621H257.02V58.9107L260.959 62.7638V63.4489H247.858ZM281.831 76.1215C285.342 74.9227 288.425 72.4396 288.425 66.5314V25.0028L285.428 20.8071V20.1221L294.504 18.5808V66.0176C294.504 74.7515 288.853 78.3478 282.003 79.5466L281.831 76.1215ZM291.25 11.1313C288.767 11.1313 286.798 9.16193 286.798 6.59315C286.798 4.11 288.767 2.1406 291.25 2.1406C293.819 2.1406 295.874 4.11 295.874 6.59315C295.874 9.16193 293.819 11.1313 291.25 11.1313ZM319.247 64.3051C310.598 64.3051 304.348 58.9107 304.348 49.2349V24.8315L301.351 20.8071V20.1221L310.427 18.5808V48.4643C310.427 55.9994 314.709 59.5101 320.531 59.5101C326.867 59.5101 332.262 54.6294 333.803 46.7518V24.8315L330.806 20.8071V20.1221L339.968 18.5808V58.9107L342.965 62.7638V63.4489H333.803V54.3725C331.234 60.3663 325.754 64.3051 319.247 64.3051ZM366.736 80.3172C354.235 80.3172 346.272 76.6353 346.272 68.5864C346.272 64.4764 349.012 61.2226 353.207 59.5101C349.954 58.2257 348.07 55.9138 348.07 52.4031C348.07 48.6355 350.724 45.7243 354.235 43.5836C351.152 41.0148 349.354 37.2473 349.354 32.8803C349.354 24.0609 356.119 18.1527 365.966 18.1527C368.963 18.1527 371.703 18.6664 374.015 19.6939L386.944 18.4952L387.201 22.8621H378.724C381.207 25.4309 382.663 28.8559 382.663 32.8803C382.663 41.443 375.813 47.4368 365.966 47.4368C362.541 47.4368 359.458 46.6661 356.889 45.3818C354.663 47.1799 353.293 48.978 353.293 51.1187C353.293 53.8587 355.605 54.9719 360.058 54.9719H373.33C382.149 54.9719 388.057 59.0819 388.057 66.617C388.057 75.2652 380.008 80.3172 366.736 80.3172ZM357.66 60.5376C353.892 61.9076 352.18 64.9901 352.18 68.3295C352.18 73.724 357.917 76.5496 366.736 76.5496C376.583 76.5496 382.235 73.1246 382.235 67.4733C382.235 62.9351 379.067 60.7088 373.073 60.7088H360.828C359.715 60.7088 358.602 60.6232 357.66 60.5376ZM365.966 43.7549C372.131 43.7549 376.155 39.6448 376.155 32.8803C376.155 26.2015 372.131 21.8346 365.966 21.8346C359.801 21.8346 355.862 26.0303 355.862 32.7947C355.862 39.3023 359.801 43.7549 365.966 43.7549ZM409.175 80.3172C396.673 80.3172 388.71 76.6353 388.71 68.5864C388.71 64.4764 391.45 61.2226 395.646 59.5101C392.392 58.2257 390.508 55.9138 390.508 52.4031C390.508 48.6355 393.163 45.7243 396.673 43.5836C393.591 41.0148 391.793 37.2473 391.793 32.8803C391.793 24.0609 398.557 18.1527 408.404 18.1527C411.401 18.1527 414.141 18.6664 416.453 19.6939L429.383 18.4952L429.639 22.8621H421.162C423.646 25.4309 425.101 28.8559 425.101 32.8803C425.101 41.443 418.251 47.4368 408.404 47.4368C404.979 47.4368 401.897 46.6661 399.328 45.3818C397.102 47.1799 395.732 48.978 395.732 51.1187C395.732 53.8587 398.043 54.9719 402.496 54.9719H415.768C424.587 54.9719 430.496 59.0819 430.496 66.617C430.496 75.2652 422.447 80.3172 409.175 80.3172ZM400.098 60.5376C396.331 61.9076 394.618 64.9901 394.618 68.3295C394.618 73.724 400.355 76.5496 409.175 76.5496C419.022 76.5496 424.673 73.1246 424.673 67.4733C424.673 62.9351 421.505 60.7088 415.511 60.7088H403.267C402.153 60.7088 401.04 60.6232 400.098 60.5376ZM408.404 43.7549C414.569 43.7549 418.594 39.6448 418.594 32.8803C418.594 26.2015 414.569 21.8346 408.404 21.8346C402.239 21.8346 398.3 26.0303 398.3 32.7947C398.3 39.3023 402.239 43.7549 408.404 43.7549ZM441.766 58.9107L444.763 62.7638V63.4489H432.604V62.7638L435.601 58.9107V6.85003L432.604 2.65435V1.96934L441.766 0.428072V58.9107ZM458.872 58.9107L461.869 62.7638V63.4489H449.796V62.7638L452.793 58.9107V25.0028L449.796 20.8071V20.1221L458.872 18.5808V58.9107ZM455.704 11.1313C453.221 11.1313 451.251 9.16193 451.251 6.59315C451.251 4.11 453.221 2.1406 455.704 2.1406C458.273 2.1406 460.328 4.11 460.328 6.59315C460.328 9.16193 458.273 11.1313 455.704 11.1313ZM466.981 63.4489V62.7638L469.978 58.9107V25.0028L466.981 20.8071V20.1221L476.057 18.5808V28.0853C478.712 22.0058 484.106 18.1527 490.699 18.1527C499.433 18.1527 505.684 23.5471 505.684 33.2229V58.9107L508.681 62.7638V63.4489H496.522V62.7638L499.519 58.9107V33.9935C499.519 26.544 495.409 22.9477 489.415 22.9477C483.079 22.9477 477.599 27.914 476.057 35.706V58.9107L479.054 62.7638V63.4489H466.981ZM532.018 80.3172C519.517 80.3172 511.553 76.6353 511.553 68.5864C511.553 64.4764 514.293 61.2226 518.489 59.5101C515.235 58.2257 513.352 55.9138 513.352 52.4031C513.352 48.6355 516.006 45.7243 519.517 43.5836C516.434 41.0148 514.636 37.2473 514.636 32.8803C514.636 24.0609 521.4 18.1527 531.247 18.1527C534.244 18.1527 536.984 18.6664 539.296 19.6939L552.226 18.4952L552.483 22.8621H544.006C546.489 25.4309 547.945 28.8559 547.945 32.8803C547.945 41.443 541.094 47.4368 531.247 47.4368C527.822 47.4368 524.74 46.6661 522.171 45.3818C519.945 47.1799 518.575 48.978 518.575 51.1187C518.575 53.8587 520.887 54.9719 525.339 54.9719H538.611C547.431 54.9719 553.339 59.0819 553.339 66.617C553.339 75.2652 545.29 80.3172 532.018 80.3172ZM522.942 60.5376C519.174 61.9076 517.462 64.9901 517.462 68.3295C517.462 73.724 523.199 76.5496 532.018 76.5496C541.865 76.5496 547.516 73.1246 547.516 67.4733C547.516 62.9351 544.348 60.7088 538.354 60.7088H526.11C524.997 60.7088 523.884 60.6232 522.942 60.5376ZM531.247 43.7549C537.413 43.7549 541.437 39.6448 541.437 32.8803C541.437 26.2015 537.413 21.8346 531.247 21.8346C525.082 21.8346 521.144 26.0303 521.144 32.7947C521.144 39.3023 525.082 43.7549 531.247 43.7549ZM119.391 168.305C113.74 168.305 108.174 165.822 105.006 161.883L102.609 167.877H99.6119V110.85L96.6149 106.654V105.969L105.691 104.428V132C108.346 125.749 114.425 122.153 120.761 122.153C132.492 122.153 140.541 131.743 140.541 145.186C140.541 158.629 131.465 168.305 119.391 168.305ZM118.963 164.538C127.868 164.538 133.862 156.146 133.862 145.186C133.862 134.654 128.297 126.776 119.734 126.776C112.541 126.776 106.633 132.085 105.691 140.562V153.663C106.976 160.171 112.285 164.538 118.963 164.538ZM165.73 168.305C153.314 168.305 144.323 158.544 144.323 145.186C144.323 131.914 153.314 122.153 165.73 122.153C178.231 122.153 187.222 131.914 187.222 145.186C187.222 158.544 178.231 168.305 165.73 168.305ZM165.73 164.452C174.292 164.452 180.629 156.403 180.629 145.186C180.629 133.883 174.292 125.92 165.73 125.92C157.253 125.92 150.917 133.969 150.917 145.186C150.917 156.489 157.253 164.452 165.73 164.452ZM212.433 168.305C200.017 168.305 191.026 158.544 191.026 145.186C191.026 131.914 200.017 122.153 212.433 122.153C224.934 122.153 233.925 131.914 233.925 145.186C233.925 158.544 224.934 168.305 212.433 168.305ZM212.433 164.452C220.995 164.452 227.332 156.403 227.332 145.186C227.332 133.883 220.995 125.92 212.433 125.92C203.956 125.92 197.62 133.969 197.62 145.186C197.62 156.489 203.956 164.452 212.433 164.452ZM265.132 123.009H277.804V123.694L271.468 127.804L258.453 139.192L275.749 162.911L280.716 166.764V167.449H267.272L267.101 166.764L268.129 162.996L253.915 143.131L247.321 148.954V162.911L250.318 166.764V167.449H238.159V166.764L241.156 162.911V110.85L238.159 106.654V105.969L247.321 104.428V143.73L264.875 127.718L264.96 123.694L265.132 123.009ZM290.433 162.911L293.43 166.764V167.449H281.357V166.764L284.353 162.911V129.003L281.357 124.807V124.122L290.433 122.581V162.911ZM287.265 115.131C284.782 115.131 282.812 113.162 282.812 110.593C282.812 108.11 284.782 106.141 287.265 106.141C289.833 106.141 291.889 108.11 291.889 110.593C291.889 113.162 289.833 115.131 287.265 115.131ZM298.542 167.449V166.764L301.539 162.911V129.003L298.542 124.807V124.122L307.618 122.581V132.085C310.273 126.006 315.667 122.153 322.26 122.153C330.994 122.153 337.245 127.547 337.245 137.223V162.911L340.242 166.764V167.449H328.083V166.764L331.08 162.911V137.993C331.08 130.544 326.97 126.948 320.976 126.948C314.64 126.948 309.16 131.914 307.618 139.706V162.911L310.615 166.764V167.449H298.542ZM363.579 184.317C351.078 184.317 343.114 180.635 343.114 172.586C343.114 168.476 345.854 165.223 350.05 163.51C346.796 162.226 344.912 159.914 344.912 156.403C344.912 152.636 347.567 149.724 351.078 147.584C347.995 145.015 346.197 141.247 346.197 136.88C346.197 128.061 352.961 122.153 362.808 122.153C365.805 122.153 368.545 122.666 370.857 123.694L383.787 122.495L384.044 126.862H375.567C378.05 129.431 379.505 132.856 379.505 136.88C379.505 145.443 372.655 151.437 362.808 151.437C359.383 151.437 356.301 150.666 353.732 149.382C351.506 151.18 350.136 152.978 350.136 155.119C350.136 157.859 352.448 158.972 356.9 158.972H370.172C378.992 158.972 384.9 163.082 384.9 170.617C384.9 179.265 376.851 184.317 363.579 184.317ZM354.503 164.538C350.735 165.908 349.022 168.99 349.022 172.33C349.022 177.724 354.759 180.55 363.579 180.55C373.426 180.55 379.077 177.125 379.077 171.473C379.077 166.935 375.909 164.709 369.915 164.709H357.671C356.558 164.709 355.444 164.623 354.503 164.538ZM362.808 147.755C368.973 147.755 372.998 143.645 372.998 136.88C372.998 130.202 368.973 125.835 362.808 125.835C356.643 125.835 352.704 130.03 352.704 136.795C352.704 143.302 356.643 147.755 362.808 147.755ZM403.03 168.305C393.012 168.305 387.19 163.339 385.306 158.03L388.988 152.636L389.673 152.721C391.043 159.999 395.752 165.137 403.03 165.137C408.767 165.137 412.877 161.712 412.877 156.489C412.877 151.951 410.052 149.211 405.085 147.755L397.465 145.7C391.813 144.073 386.933 141.162 386.933 133.969C386.933 127.119 393.183 122.153 401.832 122.153C409.281 122.153 414.676 125.492 417.244 130.801L413.991 135.51L413.22 135.425C412.021 129.174 407.569 125.235 401.746 125.235C396.523 125.235 392.67 128.489 392.67 132.685C392.67 136.452 395.238 138.593 399.691 139.877L407.397 142.018C413.905 143.987 418.957 147.155 418.957 155.033C418.957 162.825 412.364 168.305 403.03 168.305ZM434.04 150.666C434.297 135.253 448.597 132.942 448.597 120.954C448.597 114.018 443.887 108.966 436.438 108.966C428.732 108.966 423.851 115.046 423.166 123.523L422.481 123.608L418.114 118.556C420.34 109.737 428.132 104.856 436.524 104.856C447.141 104.856 455.361 111.021 455.361 120.954C455.361 135.767 438.836 136.623 437.551 150.666H434.04ZM431.729 159.314H440.034V167.449H431.729V159.314Z" fill="#4A4374"/>
</svg>
