<svg width="282" height="367" viewBox="0 0 282 367" fill="none" xmlns="http://www.w3.org/2000/svg">
<g filter="url(#filter0_dddd_20_1981)">
<path d="M42 218.813H239.326V21.4867H42V218.813Z" fill="black"/>
</g>
<path d="M62.0748 290V289.68L63.8748 287.56V263.6L62.0748 261.48V261.16H74.4748C77.3281 261.16 79.6081 261.787 81.3148 263.04C83.0481 264.267 83.9148 266.013 83.9148 268.28C83.9148 269.747 83.4881 271.013 82.6348 272.08C81.8081 273.147 80.6348 273.92 79.1148 274.4C81.0348 274.853 82.5015 275.72 83.5148 277C84.5548 278.253 85.0748 279.773 85.0748 281.56C85.0748 284.28 84.1548 286.373 82.3148 287.84C80.5015 289.28 78.0615 290 74.9948 290H62.0748ZM68.2748 287.36H73.8348C75.9415 287.36 77.5815 286.853 78.7548 285.84C79.9281 284.827 80.5148 283.427 80.5148 281.64C80.5148 279.88 79.9281 278.493 78.7548 277.48C77.6081 276.467 75.9681 275.96 73.8348 275.96H68.2748V287.36ZM68.2748 273.36H73.7148C75.5015 273.36 76.8881 272.947 77.8748 272.12C78.8615 271.293 79.3548 270.12 79.3548 268.6C79.3548 267.107 78.8615 265.933 77.8748 265.08C76.8881 264.227 75.4881 263.8 73.6748 263.8H68.2748V273.36ZM96.9361 290.4C94.9361 290.4 93.1494 289.933 91.5761 289C90.0294 288.067 88.8161 286.787 87.9361 285.16C87.0561 283.507 86.6161 281.653 86.6161 279.6C86.6161 277.52 87.0561 275.68 87.9361 274.08C88.8161 272.453 90.0294 271.173 91.5761 270.24C93.1494 269.307 94.9361 268.84 96.9361 268.84C98.9361 268.84 100.709 269.307 102.256 270.24C103.803 271.173 105.016 272.453 105.896 274.08C106.803 275.68 107.256 277.52 107.256 279.6C107.256 281.653 106.803 283.507 105.896 285.16C105.016 286.787 103.803 288.067 102.256 289C100.709 289.933 98.9361 290.4 96.9361 290.4ZM96.9361 288.08C98.1094 288.08 99.1494 287.72 100.056 287C100.963 286.28 101.669 285.28 102.176 284C102.709 282.72 102.976 281.253 102.976 279.6C102.976 277.947 102.709 276.48 102.176 275.2C101.669 273.92 100.963 272.92 100.056 272.2C99.1494 271.48 98.1094 271.12 96.9361 271.12C95.7627 271.12 94.7227 271.48 93.8161 272.2C92.9094 272.92 92.2027 273.92 91.6961 275.2C91.1894 276.48 90.9361 277.947 90.9361 279.6C90.9361 281.253 91.1894 282.72 91.6961 284C92.2027 285.28 92.9094 286.28 93.8161 287C94.7227 287.72 95.7627 288.08 96.9361 288.08ZM119.105 290.4C117.105 290.4 115.318 289.933 113.745 289C112.198 288.067 110.985 286.787 110.105 285.16C109.225 283.507 108.785 281.653 108.785 279.6C108.785 277.52 109.225 275.68 110.105 274.08C110.985 272.453 112.198 271.173 113.745 270.24C115.318 269.307 117.105 268.84 119.105 268.84C121.105 268.84 122.878 269.307 124.425 270.24C125.971 271.173 127.185 272.453 128.065 274.08C128.971 275.68 129.425 277.52 129.425 279.6C129.425 281.653 128.971 283.507 128.065 285.16C127.185 286.787 125.971 288.067 124.425 289C122.878 289.933 121.105 290.4 119.105 290.4ZM119.105 288.08C120.278 288.08 121.318 287.72 122.225 287C123.131 286.28 123.838 285.28 124.345 284C124.878 282.72 125.145 281.253 125.145 279.6C125.145 277.947 124.878 276.48 124.345 275.2C123.838 273.92 123.131 272.92 122.225 272.2C121.318 271.48 120.278 271.12 119.105 271.12C117.931 271.12 116.891 271.48 115.985 272.2C115.078 272.92 114.371 273.92 113.865 275.2C113.358 276.48 113.105 277.947 113.105 279.6C113.105 281.253 113.358 282.72 113.865 284C114.371 285.28 115.078 286.28 115.985 287C116.891 287.72 117.931 288.08 119.105 288.08ZM144.075 269.24H150.875V269.56L147.755 271.64L142.235 276.52L149.915 287.76L152.235 289.68V290H144.555L144.475 289.68L144.995 287.84L139.195 279.2L136.595 281.52V287.76L137.995 289.68V290H131.075V289.68L132.475 287.76V263.92L131.075 261.88V261.52L136.595 260.56V278.24L143.875 271.56L143.995 269.56L144.075 269.24ZM157.829 287.76L159.229 289.68V290H152.309V289.68L153.709 287.76V272.4L152.309 270.36V270L157.829 269.04V287.76ZM155.709 266.2C154.963 266.2 154.323 265.947 153.789 265.44C153.283 264.907 153.029 264.267 153.029 263.52C153.029 262.8 153.283 262.187 153.789 261.68C154.323 261.173 154.963 260.92 155.709 260.92C156.483 260.92 157.123 261.173 157.629 261.68C158.163 262.187 158.429 262.8 158.429 263.52C158.429 264.267 158.163 264.907 157.629 265.44C157.123 265.947 156.483 266.2 155.709 266.2ZM161.314 290V289.68L162.714 287.76V272.4L161.314 270.36V270L166.834 269.04V273.16C167.421 271.88 168.274 270.84 169.394 270.04C170.514 269.24 171.808 268.84 173.274 268.84C175.328 268.84 177.021 269.467 178.354 270.72C179.688 271.973 180.354 273.72 180.354 275.96V287.76L181.754 289.68V290H174.834V289.68L176.234 287.76V276.44C176.234 274.947 175.848 273.827 175.074 273.08C174.328 272.307 173.328 271.92 172.074 271.92C170.848 271.92 169.741 272.387 168.754 273.32C167.768 274.253 167.128 275.493 166.834 277.04V287.76L168.234 289.68V290H161.314ZM192.84 297.88C189.613 297.88 187.133 297.44 185.4 296.56C183.667 295.707 182.8 294.387 182.8 292.6C182.8 291.72 183.08 290.92 183.64 290.2C184.2 289.48 184.96 288.947 185.92 288.6C185.2 288.253 184.64 287.8 184.24 287.24C183.867 286.68 183.68 286 183.68 285.2C183.68 284.32 183.947 283.533 184.48 282.84C185.04 282.12 185.773 281.507 186.68 281C185.88 280.387 185.253 279.64 184.8 278.76C184.347 277.88 184.12 276.893 184.12 275.8C184.12 274.387 184.467 273.16 185.16 272.12C185.853 271.08 186.813 270.28 188.04 269.72C189.267 269.133 190.693 268.84 192.32 268.84C193.84 268.84 195.213 269.093 196.44 269.6L202.6 268.96L202.76 271.64H199.2C200.133 272.813 200.6 274.2 200.6 275.8C200.6 277.16 200.253 278.36 199.56 279.4C198.867 280.413 197.893 281.213 196.64 281.8C195.413 282.387 193.973 282.68 192.32 282.68C190.88 282.68 189.573 282.44 188.4 281.96C187.467 282.627 187 283.347 187 284.12C187 285.16 187.893 285.68 189.68 285.68H195.92C198.133 285.68 199.893 286.16 201.2 287.12C202.533 288.053 203.2 289.467 203.2 291.36C203.2 293.52 202.267 295.147 200.4 296.24C198.533 297.333 196.013 297.88 192.84 297.88ZM188.44 289.28C187.773 289.573 187.28 289.987 186.96 290.52C186.667 291.053 186.52 291.64 186.52 292.28C186.52 293.373 187.067 294.213 188.16 294.8C189.28 295.387 190.84 295.68 192.84 295.68C195 295.68 196.653 295.36 197.8 294.72C198.947 294.08 199.52 293.187 199.52 292.04C199.52 290.253 198.253 289.36 195.72 289.36H190.16C189.547 289.36 188.973 289.333 188.44 289.28ZM192.32 280.56C193.573 280.56 194.573 280.16 195.32 279.36C196.067 278.533 196.44 277.347 196.44 275.8C196.44 274.387 196.067 273.24 195.32 272.36C194.573 271.453 193.573 271 192.32 271C191.093 271 190.107 271.427 189.36 272.28C188.64 273.107 188.28 274.267 188.28 275.76C188.28 277.147 188.64 278.293 189.36 279.2C190.107 280.107 191.093 280.56 192.32 280.56ZM211.933 290.4C210.2 290.4 208.72 290.173 207.493 289.72C206.293 289.267 205.346 288.693 204.653 288C203.96 287.307 203.52 286.627 203.333 285.96L205.333 282.88L205.693 282.92C206.066 284.707 206.786 286.147 207.853 287.24C208.92 288.333 210.28 288.88 211.933 288.88C213.133 288.88 214.093 288.56 214.813 287.92C215.56 287.28 215.933 286.4 215.933 285.28C215.933 283.467 214.813 282.213 212.573 281.52L209.173 280.52C208.426 280.28 207.653 279.96 206.853 279.56C206.053 279.16 205.373 278.573 204.813 277.8C204.28 277.027 204.013 276 204.013 274.72C204.013 273.573 204.32 272.56 204.933 271.68C205.573 270.8 206.44 270.107 207.533 269.6C208.653 269.093 209.933 268.84 211.373 268.84C213.106 268.84 214.64 269.2 215.973 269.92C217.333 270.64 218.32 271.613 218.933 272.84L217.093 275.4L216.733 275.36C216.466 273.813 215.853 272.587 214.893 271.68C213.96 270.747 212.786 270.28 211.373 270.28C210.28 270.28 209.373 270.6 208.653 271.24C207.96 271.853 207.613 272.587 207.613 273.44C207.613 274.267 207.88 274.933 208.413 275.44C208.946 275.947 209.733 276.373 210.773 276.72L214.253 277.72C215.213 278.013 216.12 278.387 216.973 278.84C217.826 279.293 218.52 279.92 219.053 280.72C219.586 281.52 219.853 282.6 219.853 283.96C219.853 285.187 219.52 286.293 218.853 287.28C218.186 288.24 217.253 289 216.053 289.56C214.88 290.12 213.506 290.4 211.933 290.4Z" fill="#4A4374"/>
<defs>
<filter id="filter0_dddd_20_1981" x="0" y="13.4867" width="281.326" height="353.326" filterUnits="userSpaceOnUse" color-interpolation-filters="sRGB">
<feFlood flood-opacity="0" result="BackgroundImageFix"/>
<feColorMatrix in="SourceAlpha" type="matrix" values="0 0 0 0 0 0 0 0 0 0 0 0 0 0 0 0 0 0 127 0" result="hardAlpha"/>
<feOffset dy="7"/>
<feGaussianBlur stdDeviation="7.5"/>
<feColorMatrix type="matrix" values="0 0 0 0 0 0 0 0 0 0 0 0 0 0 0 0 0 0 0.1 0"/>
<feBlend mode="normal" in2="BackgroundImageFix" result="effect1_dropShadow_20_1981"/>
<feColorMatrix in="SourceAlpha" type="matrix" values="0 0 0 0 0 0 0 0 0 0 0 0 0 0 0 0 0 0 127 0" result="hardAlpha"/>
<feOffset dy="27"/>
<feGaussianBlur stdDeviation="13.5"/>
<feColorMatrix type="matrix" values="0 0 0 0 0 0 0 0 0 0 0 0 0 0 0 0 0 0 0.09 0"/>
<feBlend mode="normal" in2="effect1_dropShadow_20_1981" result="effect2_dropShadow_20_1981"/>
<feColorMatrix in="SourceAlpha" type="matrix" values="0 0 0 0 0 0 0 0 0 0 0 0 0 0 0 0 0 0 127 0" result="hardAlpha"/>
<feOffset dy="60"/>
<feGaussianBlur stdDeviation="18"/>
<feColorMatrix type="matrix" values="0 0 0 0 0 0 0 0 0 0 0 0 0 0 0 0 0 0 0.05 0"/>
<feBlend mode="normal" in2="effect2_dropShadow_20_1981" result="effect3_dropShadow_20_1981"/>
<feColorMatrix in="SourceAlpha" type="matrix" values="0 0 0 0 0 0 0 0 0 0 0 0 0 0 0 0 0 0 127 0" result="hardAlpha"/>
<feOffset dy="106"/>
<feGaussianBlur stdDeviation="21"/>
<feColorMatrix type="matrix" values="0 0 0 0 0 0 0 0 0 0 0 0 0 0 0 0 0 0 0.01 0"/>
<feBlend mode="normal" in2="effect3_dropShadow_20_1981" result="effect4_dropShadow_20_1981"/>
<feBlend mode="normal" in="SourceGraphic" in2="effect4_dropShadow_20_1981" result="shape"/>
</filter>
</defs>
</svg>
