<svg width="393" height="367" viewBox="0 0 393 367" fill="none" xmlns="http://www.w3.org/2000/svg">
<g filter="url(#filter0_dddd_20_1976)">
<path d="M97.8369 218.813H295.163V21.4867H97.8369V218.813Z" fill="black"/>
</g>
<path d="M112.716 290V289.68L114.516 287.56V263.6L112.716 261.48V261.16H125.796C128.943 261.16 131.383 261.92 133.116 263.44C134.85 264.933 135.716 266.987 135.716 269.6C135.716 272.107 134.85 274.147 133.116 275.72C131.383 277.293 128.943 278.08 125.796 278.08H118.916V287.52L121.316 289.68V290H112.716ZM118.916 275.44H124.636C126.77 275.44 128.383 274.907 129.476 273.84C130.596 272.747 131.156 271.32 131.156 269.56C131.156 267.827 130.596 266.44 129.476 265.4C128.356 264.333 126.743 263.8 124.636 263.8H118.916V275.44ZM142.606 290.4C140.659 290.4 139.072 289.88 137.846 288.84C136.646 287.8 136.046 286.453 136.046 284.8C136.046 283.067 136.672 281.667 137.926 280.6C139.179 279.533 140.966 278.76 143.286 278.28L149.206 277.16V275.48C149.206 273.987 148.819 272.867 148.046 272.12C147.272 271.347 146.259 270.96 145.006 270.96C143.699 270.96 142.606 271.387 141.726 272.24C140.872 273.093 140.446 274.36 140.446 276.04L136.406 275.16C136.592 273.987 137.046 272.933 137.766 272C138.512 271.04 139.499 270.28 140.726 269.72C141.979 269.133 143.432 268.84 145.086 268.84C147.619 268.84 149.619 269.493 151.086 270.8C152.579 272.107 153.326 273.947 153.326 276.32V287.6L154.726 289.68V290H149.206V286.44C148.566 287.693 147.686 288.667 146.566 289.36C145.446 290.053 144.126 290.4 142.606 290.4ZM149.206 283.28V279.12L144.686 280.04C141.752 280.76 140.286 282.213 140.286 284.4C140.286 285.36 140.606 286.147 141.246 286.76C141.912 287.373 142.792 287.68 143.886 287.68C145.299 287.68 146.446 287.253 147.326 286.4C148.232 285.547 148.859 284.507 149.206 283.28ZM157.65 297.88C157.01 297.88 156.396 297.8 155.81 297.64C155.25 297.48 154.796 297.28 154.45 297.04L155.57 293.28C156.29 293.92 157.21 294.24 158.33 294.24C159.156 294.24 159.916 293.973 160.61 293.44C161.33 292.933 161.93 292.093 162.41 290.92L162.93 289.64L155.93 271.6L154.05 269.56V269.24H161.21V269.56L160.21 271.56L165.01 284.92L169.73 271.56L168.77 269.56V269.24H174.53V269.56L172.57 271.6L164.69 292C163.836 294.133 162.823 295.64 161.65 296.52C160.476 297.427 159.143 297.88 157.65 297.88ZM175.158 290V289.68L176.518 287.76V272.4L175.118 270.36V270L180.638 269.04V273.2C181.198 271.947 182.025 270.907 183.118 270.08C184.212 269.253 185.478 268.84 186.918 268.84C188.492 268.84 189.812 269.24 190.878 270.04C191.945 270.84 192.652 271.973 192.998 273.44C193.692 271.947 194.625 270.813 195.798 270.04C196.972 269.24 198.225 268.84 199.558 268.84C201.558 268.84 203.158 269.467 204.358 270.72C205.585 271.973 206.198 273.68 206.198 275.84V287.76L207.558 289.68V290H200.798V289.68L202.078 287.76V276.4C202.078 274.747 201.705 273.587 200.958 272.92C200.238 272.253 199.372 271.92 198.358 271.92C197.132 271.92 196.052 272.4 195.118 273.36C194.185 274.293 193.612 275.56 193.398 277.16V287.76L194.678 289.68V290H187.998V289.68L189.278 287.76V276.4C189.278 274.747 188.918 273.587 188.198 272.92C187.478 272.253 186.625 271.92 185.638 271.92C184.412 271.92 183.318 272.4 182.358 273.36C181.425 274.32 180.852 275.587 180.638 277.16V287.76L181.918 289.68V290H175.158ZM213.316 279.24C213.343 280.893 213.65 282.32 214.236 283.52C214.823 284.693 215.623 285.6 216.636 286.24C217.65 286.88 218.783 287.2 220.036 287.2C223.05 287.2 225.063 285.667 226.076 282.6L228.356 283.24C227.876 285.373 226.85 287.107 225.276 288.44C223.703 289.747 221.703 290.4 219.276 290.4C217.196 290.4 215.396 289.92 213.876 288.96C212.356 287.973 211.183 286.667 210.356 285.04C209.53 283.387 209.116 281.573 209.116 279.6C209.116 277.6 209.503 275.787 210.276 274.16C211.076 272.533 212.21 271.24 213.676 270.28C215.143 269.32 216.903 268.84 218.956 268.84C220.69 268.84 222.156 269.133 223.356 269.72C224.583 270.307 225.556 271.093 226.276 272.08C227.023 273.067 227.543 274.187 227.836 275.44C228.156 276.667 228.276 277.933 228.196 279.24H213.316ZM218.956 270.92C217.41 270.92 216.156 271.533 215.196 272.76C214.263 273.96 213.676 275.453 213.436 277.24H223.916C223.863 276.093 223.636 275.053 223.236 274.12C222.836 273.16 222.276 272.387 221.556 271.8C220.836 271.213 219.97 270.92 218.956 270.92ZM230.159 290V289.68L231.559 287.76V272.4L230.159 270.36V270L235.679 269.04V273.16C236.266 271.88 237.119 270.84 238.239 270.04C239.359 269.24 240.652 268.84 242.119 268.84C244.172 268.84 245.866 269.467 247.199 270.72C248.532 271.973 249.199 273.72 249.199 275.96V287.76L250.599 289.68V290H243.679V289.68L245.079 287.76V276.44C245.079 274.947 244.692 273.827 243.919 273.08C243.172 272.307 242.172 271.92 240.919 271.92C239.692 271.92 238.586 272.387 237.599 273.32C236.612 274.253 235.972 275.493 235.679 277.04V287.76L237.079 289.68V290H230.159ZM260.093 290.4C258.467 290.4 257.093 289.933 255.973 289C254.853 288.067 254.293 286.56 254.293 284.48V271.64H250.733V269.68C251.88 269.547 252.813 269.32 253.533 269C254.28 268.653 254.853 268.107 255.253 267.36C255.68 266.613 255.987 265.56 256.173 264.2H258.413V269.24L263.493 268.96L263.653 271.64H258.413V284.6C258.413 285.72 258.693 286.52 259.253 287C259.813 287.48 260.48 287.72 261.253 287.72C261.627 287.72 262 287.68 262.373 287.6C262.773 287.52 263.147 287.36 263.493 287.12L263.613 289.08C263.267 289.427 262.787 289.733 262.173 290C261.56 290.267 260.867 290.4 260.093 290.4ZM272.965 290.4C271.232 290.4 269.752 290.173 268.525 289.72C267.325 289.267 266.379 288.693 265.685 288C264.992 287.307 264.552 286.627 264.365 285.96L266.365 282.88L266.725 282.92C267.099 284.707 267.819 286.147 268.885 287.24C269.952 288.333 271.312 288.88 272.965 288.88C274.165 288.88 275.125 288.56 275.845 287.92C276.592 287.28 276.965 286.4 276.965 285.28C276.965 283.467 275.845 282.213 273.605 281.52L270.205 280.52C269.459 280.28 268.685 279.96 267.885 279.56C267.085 279.16 266.405 278.573 265.845 277.8C265.312 277.027 265.045 276 265.045 274.72C265.045 273.573 265.352 272.56 265.965 271.68C266.605 270.8 267.472 270.107 268.565 269.6C269.685 269.093 270.965 268.84 272.405 268.84C274.139 268.84 275.672 269.2 277.005 269.92C278.365 270.64 279.352 271.613 279.965 272.84L278.125 275.4L277.765 275.36C277.499 273.813 276.885 272.587 275.925 271.68C274.992 270.747 273.819 270.28 272.405 270.28C271.312 270.28 270.405 270.6 269.685 271.24C268.992 271.853 268.645 272.587 268.645 273.44C268.645 274.267 268.912 274.933 269.445 275.44C269.979 275.947 270.765 276.373 271.805 276.72L275.285 277.72C276.245 278.013 277.152 278.387 278.005 278.84C278.859 279.293 279.552 279.92 280.085 280.72C280.619 281.52 280.885 282.6 280.885 283.96C280.885 285.187 280.552 286.293 279.885 287.28C279.219 288.24 278.285 289 277.085 289.56C275.912 290.12 274.539 290.4 272.965 290.4Z" fill="#4A4374"/>
<defs>
<filter id="filter0_dddd_20_1976" x="55.8369" y="13.4867" width="281.326" height="353.326" filterUnits="userSpaceOnUse" color-interpolation-filters="sRGB">
<feFlood flood-opacity="0" result="BackgroundImageFix"/>
<feColorMatrix in="SourceAlpha" type="matrix" values="0 0 0 0 0 0 0 0 0 0 0 0 0 0 0 0 0 0 127 0" result="hardAlpha"/>
<feOffset dy="7"/>
<feGaussianBlur stdDeviation="7.5"/>
<feColorMatrix type="matrix" values="0 0 0 0 0 0 0 0 0 0 0 0 0 0 0 0 0 0 0.1 0"/>
<feBlend mode="normal" in2="BackgroundImageFix" result="effect1_dropShadow_20_1976"/>
<feColorMatrix in="SourceAlpha" type="matrix" values="0 0 0 0 0 0 0 0 0 0 0 0 0 0 0 0 0 0 127 0" result="hardAlpha"/>
<feOffset dy="27"/>
<feGaussianBlur stdDeviation="13.5"/>
<feColorMatrix type="matrix" values="0 0 0 0 0 0 0 0 0 0 0 0 0 0 0 0 0 0 0.09 0"/>
<feBlend mode="normal" in2="effect1_dropShadow_20_1976" result="effect2_dropShadow_20_1976"/>
<feColorMatrix in="SourceAlpha" type="matrix" values="0 0 0 0 0 0 0 0 0 0 0 0 0 0 0 0 0 0 127 0" result="hardAlpha"/>
<feOffset dy="60"/>
<feGaussianBlur stdDeviation="18"/>
<feColorMatrix type="matrix" values="0 0 0 0 0 0 0 0 0 0 0 0 0 0 0 0 0 0 0.05 0"/>
<feBlend mode="normal" in2="effect2_dropShadow_20_1976" result="effect3_dropShadow_20_1976"/>
<feColorMatrix in="SourceAlpha" type="matrix" values="0 0 0 0 0 0 0 0 0 0 0 0 0 0 0 0 0 0 127 0" result="hardAlpha"/>
<feOffset dy="106"/>
<feGaussianBlur stdDeviation="21"/>
<feColorMatrix type="matrix" values="0 0 0 0 0 0 0 0 0 0 0 0 0 0 0 0 0 0 0.01 0"/>
<feBlend mode="normal" in2="effect3_dropShadow_20_1976" result="effect4_dropShadow_20_1976"/>
<feBlend mode="normal" in="SourceGraphic" in2="effect4_dropShadow_20_1976" result="shape"/>
</filter>
</defs>
</svg>
