<svg width="393" height="367" viewBox="0 0 393 367" fill="none" xmlns="http://www.w3.org/2000/svg">
<g filter="url(#filter0_dddd_20_1979)">
<path d="M97.8369 218.813H295.163V21.4867H97.8369V218.813Z" fill="black"/>
</g>
<path d="M104.62 290V289.68L106.42 287.64V263.52L104.62 261.48V261.16H116.9C120.127 261.16 122.62 261.853 124.38 263.24C126.167 264.6 127.06 266.547 127.06 269.08C127.06 271 126.46 272.6 125.26 273.88C124.087 275.133 122.474 275.973 120.42 276.4C121.647 276.72 122.7 277.28 123.58 278.08C124.46 278.88 125.194 280.187 125.78 282L127.5 287.6L129.86 289.68V290H123.42L121.46 282.92C120.82 280.68 119.94 279.147 118.82 278.32C117.727 277.493 116.207 277.08 114.26 277.08H110.82V287.64L112.74 289.68V290H104.62ZM110.82 274.48H116.18C118.074 274.48 119.594 274.013 120.74 273.08C121.914 272.12 122.5 270.787 122.5 269.08C122.5 267.347 121.914 266.04 120.74 265.16C119.594 264.253 118.074 263.8 116.18 263.8H110.82V274.48ZM133.597 279.24C133.624 280.893 133.93 282.32 134.517 283.52C135.104 284.693 135.904 285.6 136.917 286.24C137.93 286.88 139.064 287.2 140.317 287.2C143.33 287.2 145.344 285.667 146.357 282.6L148.637 283.24C148.157 285.373 147.13 287.107 145.557 288.44C143.984 289.747 141.984 290.4 139.557 290.4C137.477 290.4 135.677 289.92 134.157 288.96C132.637 287.973 131.464 286.667 130.637 285.04C129.81 283.387 129.397 281.573 129.397 279.6C129.397 277.6 129.784 275.787 130.557 274.16C131.357 272.533 132.49 271.24 133.957 270.28C135.424 269.32 137.184 268.84 139.237 268.84C140.97 268.84 142.437 269.133 143.637 269.72C144.864 270.307 145.837 271.093 146.557 272.08C147.304 273.067 147.824 274.187 148.117 275.44C148.437 276.667 148.557 277.933 148.477 279.24H133.597ZM139.237 270.92C137.69 270.92 136.437 271.533 135.477 272.76C134.544 273.96 133.957 275.453 133.717 277.24H144.197C144.144 276.093 143.917 275.053 143.517 274.12C143.117 273.16 142.557 272.387 141.837 271.8C141.117 271.213 140.25 270.92 139.237 270.92ZM150.479 290V289.68L151.839 287.76V272.4L150.439 270.36V270L155.959 269.04V273.2C156.519 271.947 157.346 270.907 158.439 270.08C159.533 269.253 160.799 268.84 162.239 268.84C163.813 268.84 165.133 269.24 166.199 270.04C167.266 270.84 167.973 271.973 168.319 273.44C169.013 271.947 169.946 270.813 171.119 270.04C172.293 269.24 173.546 268.84 174.879 268.84C176.879 268.84 178.479 269.467 179.679 270.72C180.906 271.973 181.519 273.68 181.519 275.84V287.76L182.879 289.68V290H176.119V289.68L177.399 287.76V276.4C177.399 274.747 177.026 273.587 176.279 272.92C175.559 272.253 174.693 271.92 173.679 271.92C172.453 271.92 171.373 272.4 170.439 273.36C169.506 274.293 168.933 275.56 168.719 277.16V287.76L169.999 289.68V290H163.319V289.68L164.599 287.76V276.4C164.599 274.747 164.239 273.587 163.519 272.92C162.799 272.253 161.946 271.92 160.959 271.92C159.733 271.92 158.639 272.4 157.679 273.36C156.746 274.32 156.173 275.587 155.959 277.16V287.76L157.239 289.68V290H150.479ZM190.277 287.76L191.677 289.68V290H184.757V289.68L186.157 287.76V272.4L184.757 270.36V270L190.277 269.04V287.76ZM188.157 266.2C187.41 266.2 186.77 265.947 186.237 265.44C185.73 264.907 185.477 264.267 185.477 263.52C185.477 262.8 185.73 262.187 186.237 261.68C186.77 261.173 187.41 260.92 188.157 260.92C188.93 260.92 189.57 261.173 190.077 261.68C190.61 262.187 190.877 262.8 190.877 263.52C190.877 264.267 190.61 264.907 190.077 265.44C189.57 265.947 188.93 266.2 188.157 266.2ZM193.761 290V289.68L195.161 287.76V272.4L193.761 270.36V270L199.281 269.04V273.16C199.868 271.88 200.721 270.84 201.841 270.04C202.961 269.24 204.255 268.84 205.721 268.84C207.775 268.84 209.468 269.467 210.801 270.72C212.135 271.973 212.801 273.72 212.801 275.96V287.76L214.201 289.68V290H207.281V289.68L208.681 287.76V276.44C208.681 274.947 208.295 273.827 207.521 273.08C206.775 272.307 205.775 271.92 204.521 271.92C203.295 271.92 202.188 272.387 201.201 273.32C200.215 274.253 199.575 275.493 199.281 277.04V287.76L200.681 289.68V290H193.761ZM225.008 290.4C223.195 290.4 221.581 289.947 220.168 289.04C218.781 288.107 217.688 286.827 216.888 285.2C216.115 283.573 215.728 281.707 215.728 279.6C215.728 277.493 216.155 275.64 217.008 274.04C217.888 272.413 219.088 271.147 220.608 270.24C222.155 269.307 223.901 268.84 225.848 268.84C226.968 268.84 228.035 269.067 229.048 269.52C230.061 269.947 230.915 270.587 231.608 271.44V263.92L230.208 261.88V261.52L235.728 260.56V287.76L237.128 289.68V290H231.608V286.2C231.048 287.453 230.168 288.467 228.968 289.24C227.768 290.013 226.448 290.4 225.008 290.4ZM225.968 287.48C227.408 287.48 228.648 287 229.688 286.04C230.755 285.053 231.395 283.747 231.608 282.12V276C231.261 274.453 230.608 273.253 229.648 272.4C228.688 271.52 227.541 271.08 226.208 271.08C224.981 271.08 223.901 271.453 222.968 272.2C222.035 272.947 221.301 273.96 220.768 275.24C220.261 276.52 220.008 277.973 220.008 279.6C220.008 281.92 220.555 283.813 221.648 285.28C222.741 286.747 224.181 287.48 225.968 287.48ZM242.956 279.24C242.983 280.893 243.29 282.32 243.876 283.52C244.463 284.693 245.263 285.6 246.276 286.24C247.29 286.88 248.423 287.2 249.676 287.2C252.69 287.2 254.703 285.667 255.716 282.6L257.996 283.24C257.516 285.373 256.49 287.107 254.916 288.44C253.343 289.747 251.343 290.4 248.916 290.4C246.836 290.4 245.036 289.92 243.516 288.96C241.996 287.973 240.823 286.667 239.996 285.04C239.17 283.387 238.756 281.573 238.756 279.6C238.756 277.6 239.143 275.787 239.916 274.16C240.716 272.533 241.85 271.24 243.316 270.28C244.783 269.32 246.543 268.84 248.596 268.84C250.33 268.84 251.796 269.133 252.996 269.72C254.223 270.307 255.196 271.093 255.916 272.08C256.663 273.067 257.183 274.187 257.476 275.44C257.796 276.667 257.916 277.933 257.836 279.24H242.956ZM248.596 270.92C247.05 270.92 245.796 271.533 244.836 272.76C243.903 273.96 243.316 275.453 243.076 277.24H253.556C253.503 276.093 253.276 275.053 252.876 274.12C252.476 273.16 251.916 272.387 251.196 271.8C250.476 271.213 249.61 270.92 248.596 270.92ZM259.799 290V289.68L261.199 287.76V272.4L259.799 270.36V270L265.319 269.04V273.56C265.825 272.12 266.572 270.973 267.559 270.12C268.545 269.267 269.719 268.84 271.079 268.84C271.612 268.84 272.092 268.88 272.519 268.96L272.199 273.04C270.839 272.64 269.679 272.64 268.719 273.04C267.785 273.44 267.039 274.067 266.479 274.92C265.919 275.747 265.532 276.6 265.319 277.48V287.76L267.199 289.68V290H259.799ZM281.061 290.4C279.328 290.4 277.848 290.173 276.621 289.72C275.421 289.267 274.475 288.693 273.781 288C273.088 287.307 272.648 286.627 272.461 285.96L274.461 282.88L274.821 282.92C275.195 284.707 275.915 286.147 276.981 287.24C278.048 288.333 279.408 288.88 281.061 288.88C282.261 288.88 283.221 288.56 283.941 287.92C284.688 287.28 285.061 286.4 285.061 285.28C285.061 283.467 283.941 282.213 281.701 281.52L278.301 280.52C277.555 280.28 276.781 279.96 275.981 279.56C275.181 279.16 274.501 278.573 273.941 277.8C273.408 277.027 273.141 276 273.141 274.72C273.141 273.573 273.448 272.56 274.061 271.68C274.701 270.8 275.568 270.107 276.661 269.6C277.781 269.093 279.061 268.84 280.501 268.84C282.235 268.84 283.768 269.2 285.101 269.92C286.461 270.64 287.448 271.613 288.061 272.84L286.221 275.4L285.861 275.36C285.595 273.813 284.981 272.587 284.021 271.68C283.088 270.747 281.915 270.28 280.501 270.28C279.408 270.28 278.501 270.6 277.781 271.24C277.088 271.853 276.741 272.587 276.741 273.44C276.741 274.267 277.008 274.933 277.541 275.44C278.075 275.947 278.861 276.373 279.901 276.72L283.381 277.72C284.341 278.013 285.248 278.387 286.101 278.84C286.955 279.293 287.648 279.92 288.181 280.72C288.715 281.52 288.981 282.6 288.981 283.96C288.981 285.187 288.648 286.293 287.981 287.28C287.315 288.24 286.381 289 285.181 289.56C284.008 290.12 282.635 290.4 281.061 290.4Z" fill="#4A4374"/>
<defs>
<filter id="filter0_dddd_20_1979" x="55.8369" y="13.4867" width="281.326" height="353.326" filterUnits="userSpaceOnUse" color-interpolation-filters="sRGB">
<feFlood flood-opacity="0" result="BackgroundImageFix"/>
<feColorMatrix in="SourceAlpha" type="matrix" values="0 0 0 0 0 0 0 0 0 0 0 0 0 0 0 0 0 0 127 0" result="hardAlpha"/>
<feOffset dy="7"/>
<feGaussianBlur stdDeviation="7.5"/>
<feColorMatrix type="matrix" values="0 0 0 0 0 0 0 0 0 0 0 0 0 0 0 0 0 0 0.1 0"/>
<feBlend mode="normal" in2="BackgroundImageFix" result="effect1_dropShadow_20_1979"/>
<feColorMatrix in="SourceAlpha" type="matrix" values="0 0 0 0 0 0 0 0 0 0 0 0 0 0 0 0 0 0 127 0" result="hardAlpha"/>
<feOffset dy="27"/>
<feGaussianBlur stdDeviation="13.5"/>
<feColorMatrix type="matrix" values="0 0 0 0 0 0 0 0 0 0 0 0 0 0 0 0 0 0 0.09 0"/>
<feBlend mode="normal" in2="effect1_dropShadow_20_1979" result="effect2_dropShadow_20_1979"/>
<feColorMatrix in="SourceAlpha" type="matrix" values="0 0 0 0 0 0 0 0 0 0 0 0 0 0 0 0 0 0 127 0" result="hardAlpha"/>
<feOffset dy="60"/>
<feGaussianBlur stdDeviation="18"/>
<feColorMatrix type="matrix" values="0 0 0 0 0 0 0 0 0 0 0 0 0 0 0 0 0 0 0.05 0"/>
<feBlend mode="normal" in2="effect2_dropShadow_20_1979" result="effect3_dropShadow_20_1979"/>
<feColorMatrix in="SourceAlpha" type="matrix" values="0 0 0 0 0 0 0 0 0 0 0 0 0 0 0 0 0 0 127 0" result="hardAlpha"/>
<feOffset dy="106"/>
<feGaussianBlur stdDeviation="21"/>
<feColorMatrix type="matrix" values="0 0 0 0 0 0 0 0 0 0 0 0 0 0 0 0 0 0 0.01 0"/>
<feBlend mode="normal" in2="effect3_dropShadow_20_1979" result="effect4_dropShadow_20_1979"/>
<feBlend mode="normal" in="SourceGraphic" in2="effect4_dropShadow_20_1979" result="shape"/>
</filter>
</defs>
</svg>
