<svg width="414" height="168" viewBox="0 0 414 168" fill="none" xmlns="http://www.w3.org/2000/svg">
<path d="M24.4591 63.0208V62.3357L28.3123 58.1401V6.16505L24.4591 1.88375V1.28437H65.5596L66.6727 10.8745H66.0734L59.9083 5.9938L34.9911 5.30879V28.1709L53.4863 27.8284L57.7676 23.2903H58.4526V37.1617H57.7676L53.4863 32.6235L34.9911 32.1954V58.9107L60.6789 58.3113L66.844 53.345H67.4434L66.3302 63.0208H24.4591ZM84.4783 63.0208L69.9219 23.3759L65.8974 19.1802V18.5808H78.142L78.2276 19.1802L76.1726 23.2046L87.8177 55.8282L99.1203 23.2046L97.0653 19.2658L97.1509 18.5808H107.854V19.2658L103.915 23.3759L89.0165 63.0208H84.4783ZM113.48 40.2442C113.48 51.8894 120.501 58.8251 129.235 58.8251C136.171 58.8251 140.88 55.3144 143.449 47.9506L147.046 49.0637C144.734 58.0544 137.798 63.877 128.037 63.877C115.449 63.877 106.887 53.9444 106.887 40.758C106.887 27.6572 114.936 17.7246 127.608 17.7246C141.994 17.7246 147.217 28.9416 146.532 39.6448H113.48C113.48 39.8161 113.48 40.073 113.48 40.2442ZM113.823 36.0485H139.939C139.596 27.9997 135.143 21.3209 127.608 21.3209C119.988 21.3209 115.021 27.7428 113.823 36.0485ZM151.35 63.0208V62.3357L154.347 58.4826V24.5747L151.35 20.379V19.694L160.427 18.1527V27.9141C162.653 21.8346 166.934 17.7246 172.671 17.7246C173.784 17.7246 174.897 17.8102 175.754 18.0671L175.154 24.4034C165.907 21.749 161.711 29.7978 160.427 35.706V58.4826L164.365 62.3357V63.0208H151.35ZM182.592 79.8891C180.109 79.8891 177.626 79.2041 176.342 78.1766L178.14 72.0971C179.51 73.2959 181.65 74.1521 184.134 74.1521C187.644 74.1521 190.898 71.8402 193.039 66.1889L194.409 62.7639L179.339 23.119L175.4 19.1802V18.5808H187.901L187.987 19.1802L185.761 23.119L197.491 55.1432L208.965 23.119L206.825 19.1802L206.91 18.5808H217.785V19.1802L213.76 23.119L196.721 67.9014C193.296 76.7209 188.501 79.8891 182.592 79.8891ZM235.844 63.877C229.507 63.877 224.969 60.2807 224.969 52.4031V22.434H216.749V19.3515C224.199 18.7521 226.853 17.2108 227.624 8.13445H231.134V18.5808L242.865 18.0671L243.122 22.434H231.134V52.66C231.134 57.7119 233.874 59.5957 237.299 59.5957C239.098 59.5957 240.81 59.3388 242.351 58.2257L242.694 61.3939C241.409 62.5926 239.012 63.877 235.844 63.877ZM245.797 63.0208V62.3357L248.794 58.4826V6.42193L245.797 2.22625V1.54124L254.959 -2.81754e-05V27.6572C257.528 21.5777 263.008 17.7246 269.516 17.7246C278.249 17.7246 284.5 23.0334 284.5 32.7948V58.4826L287.497 62.3357V63.0208H275.338V62.3357L278.335 58.4826V33.5654C278.335 26.1159 274.225 22.5196 268.231 22.5196C261.895 22.5196 256.415 27.4859 254.959 35.2779V58.4826L257.956 62.3357V63.0208H245.797ZM301.248 58.4826L304.245 62.3357V63.0208H292.172V62.3357L295.169 58.4826V24.5747L292.172 20.379V19.694L301.248 18.1527V58.4826ZM298.08 10.7032C295.597 10.7032 293.627 8.73383 293.627 6.16505C293.627 3.6819 295.597 1.7125 298.08 1.7125C300.649 1.7125 302.704 3.6819 302.704 6.16505C302.704 8.73383 300.649 10.7032 298.08 10.7032ZM309.357 63.0208V62.3357L312.354 58.4826V24.5747L309.357 20.379V19.694L318.433 18.1527V27.6572C321.088 21.5777 326.482 17.7246 333.075 17.7246C341.809 17.7246 348.06 23.119 348.06 32.7948V58.4826L351.057 62.3357V63.0208H338.898V62.3357L341.895 58.4826V33.5654C341.895 26.1159 337.785 22.5196 331.791 22.5196C325.455 22.5196 319.975 27.4859 318.433 35.2779V58.4826L321.43 62.3357V63.0208H309.357ZM374.394 79.8891C361.893 79.8891 353.929 76.2072 353.929 68.1583C353.929 64.0483 356.669 60.7945 360.865 59.082C357.611 57.7976 355.728 55.4857 355.728 51.975C355.728 48.2074 358.382 45.2962 361.893 43.1555C358.81 40.5867 357.012 36.8192 357.012 32.4522C357.012 23.6328 363.776 17.7246 373.623 17.7246C376.62 17.7246 379.36 18.2383 381.672 19.2658L394.602 18.0671L394.859 22.434H386.382C388.865 25.0028 390.321 28.4278 390.321 32.4522C390.321 41.0149 383.47 47.0087 373.623 47.0087C370.198 47.0087 367.116 46.238 364.547 44.9537C362.321 46.7518 360.951 48.5499 360.951 50.6906C360.951 53.4306 363.263 54.5438 367.715 54.5438H380.987C389.807 54.5438 395.715 58.6538 395.715 66.1889C395.715 74.8371 387.666 79.8891 374.394 79.8891ZM365.318 60.1095C361.55 61.4795 359.838 64.562 359.838 67.9014C359.838 73.2959 365.575 76.1215 374.394 76.1215C384.241 76.1215 389.892 72.6965 389.892 67.0452C389.892 62.507 386.724 60.2807 380.73 60.2807H368.486C367.373 60.2807 366.26 60.1951 365.318 60.1095ZM373.623 43.3268C379.789 43.3268 383.813 39.2167 383.813 32.4522C383.813 25.7734 379.789 21.4065 373.623 21.4065C367.458 21.4065 363.52 25.6022 363.52 32.3666C363.52 38.8742 367.458 43.3268 373.623 43.3268ZM-0.000180381 167.021V166.421L4.62363 162.226L26.8008 105.284H31.5958L54.1155 162.14L58.6537 166.421V167.021H43.8404L43.7547 166.421L46.8373 162.311L41.4428 148.44H15.07L9.84682 162.311L12.8437 166.421L12.7581 167.021H-0.000180381ZM16.6969 144.073H39.7303L28.0852 114.018L16.6969 144.073ZM75.7006 167.877C67.0524 167.877 60.8017 162.483 60.8017 152.807V128.403L57.8048 124.379V123.694L66.8811 122.153V152.036C66.8811 159.571 71.1624 163.082 76.985 163.082C83.3213 163.082 88.7158 158.201 90.257 150.324V128.403L87.2601 124.379V123.694L96.4221 122.153V162.483L99.419 166.336V167.021H90.257V157.944C87.6883 163.938 82.2082 167.877 75.7006 167.877ZM120.193 167.877C113.857 167.877 109.319 164.281 109.319 156.403V126.434H101.099V123.351C108.548 122.752 111.203 121.211 111.973 112.134H115.484V122.581L127.215 122.067L127.472 126.434H115.484V156.66C115.484 161.712 118.224 163.596 121.649 163.596C123.447 163.596 125.16 163.339 126.701 162.226L127.043 165.394C125.759 166.593 123.362 167.877 120.193 167.877ZM148.949 167.877C136.533 167.877 127.542 158.116 127.542 144.758C127.542 131.486 136.533 121.725 148.949 121.725C161.45 121.725 170.441 131.486 170.441 144.758C170.441 158.116 161.45 167.877 148.949 167.877ZM148.949 164.024C157.512 164.024 163.848 155.975 163.848 144.758C163.848 133.455 157.512 125.492 148.949 125.492C140.472 125.492 134.136 133.541 134.136 144.758C134.136 156.061 140.472 164.024 148.949 164.024ZM175.104 167.021V166.336L177.929 162.483V128.575L174.933 124.379V123.694L184.009 122.153V131.657C186.578 125.749 191.801 121.725 198.223 121.725C205.244 121.725 210.039 125.406 211.495 132.171C214.577 125.321 219.972 121.725 226.051 121.725C234.614 121.725 240.008 127.29 240.008 136.624V162.483L242.92 166.336V167.021H231.103V166.336L233.929 162.483V137.394C233.929 129.345 229.733 126.52 224.767 126.52C218.602 126.52 213.293 131.4 212.009 139.535V162.483L214.749 166.336V167.021H203.103V166.336L205.929 162.483V137.394C205.929 129.345 201.733 126.52 196.938 126.52C190.688 126.52 185.379 131.486 184.009 139.62V162.483L186.835 166.336V167.021H175.104ZM260.654 167.877C252.348 167.877 246.783 163.168 246.783 155.975C246.783 148.526 252.263 144.244 261.939 142.275L275.81 139.62V136.452C275.81 129.174 271.443 125.406 265.364 125.406C259.027 125.406 254.147 129.431 253.975 136.795L247.81 135.082C248.752 127.547 255.345 121.725 265.449 121.725C275.468 121.725 281.889 127.29 281.889 137.052V162.397L284.886 166.336V167.021H275.81V157.944C272.899 164.195 267.676 167.877 260.654 167.877ZM275.81 151.522V143.131L263.822 145.529C256.972 147.07 253.29 150.238 253.29 155.547C253.29 160.342 256.715 163.424 262.195 163.424C269.559 163.424 274.269 158.03 275.81 151.522ZM304.33 167.877C297.993 167.877 293.455 164.281 293.455 156.403V126.434H285.235V123.351C292.684 122.752 295.339 121.211 296.109 112.134H299.62V122.581L311.351 122.067L311.608 126.434H299.62V156.66C299.62 161.712 302.36 163.596 305.785 163.596C307.583 163.596 309.296 163.339 310.837 162.226L311.18 165.394C309.895 166.593 307.498 167.877 304.33 167.877ZM318.272 144.244C318.272 155.889 325.293 162.825 334.027 162.825C340.963 162.825 345.672 159.314 348.241 151.951L351.837 153.064C349.525 162.054 342.59 167.877 332.828 167.877C320.241 167.877 311.679 157.944 311.679 144.758C311.679 131.657 319.727 121.725 332.4 121.725C346.785 121.725 352.009 132.942 351.323 143.645H318.272C318.272 143.816 318.272 144.073 318.272 144.244ZM318.614 140.049H344.73C344.388 132 339.935 125.321 332.4 125.321C324.779 125.321 319.813 131.743 318.614 140.049ZM375.322 167.877C363.42 167.877 355.371 158.201 355.371 144.758C355.371 131.315 364.448 121.725 376.521 121.725C381.915 121.725 387.053 123.951 390.221 128.575V110.422L387.224 106.226V105.541L396.301 104V162.483L399.297 166.336V167.021H390.221V157.944C387.567 164.195 381.487 167.877 375.322 167.877ZM376.35 163.253C383.457 163.253 389.279 157.859 390.221 149.467V137.651C388.594 130.116 383.628 125.492 376.949 125.492C368.044 125.492 362.05 133.798 362.05 144.758C362.05 155.29 367.616 163.253 376.35 163.253ZM404.78 158.886H413.086V167.021H404.78V158.886Z" fill="#4A4374"/>
</svg>
